<svg xmlns="http://www.w3.org/2000/svg" viewBox="0 0 128 128">
  <defs>
    <linearGradient id="paper" x1="18" y1="12" x2="108" y2="120" gradientUnits="userSpaceOnUse">
      <stop stop-color="#fffdf7"/>
      <stop offset="0.54" stop-color="#f5efe2"/>
      <stop offset="1" stop-color="#e7dcc8"/>
    </linearGradient>
    <linearGradient id="gold" x1="19" y1="18" x2="109" y2="110" gradientUnits="userSpaceOnUse">
      <stop stop-color="#c7a260"/>
      <stop offset="0.45" stop-color="#8a6a35"/>
      <stop offset="1" stop-color="#d9bd80"/>
    </linearGradient>
    <filter id="shadow" x="-20%" y="-20%" width="140%" height="150%">
      <feDropShadow dx="0" dy="7" stdDeviation="7" flood-color="#3b2b18" flood-opacity="0.22"/>
    </filter>
  </defs>

  <rect x="10" y="10" width="108" height="108" rx="24" fill="url(#paper)" filter="url(#shadow)"/>
  <rect x="13.5" y="13.5" width="101" height="101" rx="21" fill="none" stroke="url(#gold)" stroke-width="3"/>
  <rect x="18.5" y="18.5" width="91" height="91" rx="17" fill="none" stroke="#cdb17a" stroke-width="1.4" opacity="0.85"/>

  <g opacity="0.38" stroke="#d4c29f" stroke-width="1.2" stroke-linecap="round">
    <path d="M27 36c6-4 11-4 17-1"/>
    <path d="M81 31c7 1 12 4 16 9"/>
    <path d="M25 92c8-2 14-1 20 3"/>
    <path d="M75 97c8 1 15-1 20-6"/>
    <path d="M38 23c3 7 4 13 2 19"/>
    <path d="M98 56c-5 4-10 6-16 5"/>
  </g>

  <g fill="#2a2219">
    <path
      d="M38 86c7-22 12-39 30-52 5-3 9-4 12-2 4 3 1 8 6 11 7 5 10 14 8 23-2 11-11 19-22 25-10 6-22 8-34-5Z"
      opacity="0.92"
    />
    <path
      d="M53 80c8-15 15-24 27-30 4 4 6 10 4 16-2 9-11 17-24 22-4 1-7-1-7-8Z"
      fill="#f6efe3"
      opacity="0.92"
    />
    <path d="M49 77c4-14 12-27 23-39-15 9-25 22-34 45 4 3 7 4 11-6Z" opacity="0.74"/>
    <path d="M72 37c-7 5-12 11-16 18 9-2 18-5 25-10-1-6-4-9-9-8Z" fill="#f7f0e4" opacity="0.84"/>
    <path d="M67 64c4-5 9-8 15-10 3 7 0 16-8 22-5-2-8-6-7-12Z" opacity="0.72"/>
  </g>

  <path d="M34 93c19 8 43 7 62-3" fill="none" stroke="#2a2219" stroke-width="4" stroke-linecap="round" opacity="0.36"/>
  <path d="M41 99c13 4 31 4 46-1" fill="none" stroke="#8a6a35" stroke-width="2" stroke-linecap="round" opacity="0.45"/>
</svg>
