<svg xmlns="http://www.w3.org/2000/svg" viewBox="0 0 128 128">
  <defs>
    <linearGradient id="field" x1="10" y1="10" x2="118" y2="120" gradientUnits="userSpaceOnUse">
      <stop stop-color="#e2c37c"/>
      <stop offset="0.38" stop-color="#f1d99b"/>
      <stop offset="0.72" stop-color="#d8b46c"/>
      <stop offset="1" stop-color="#9f7b3f"/>
    </linearGradient>
    <linearGradient id="panel" x1="28" y1="18" x2="100" y2="112" gradientUnits="userSpaceOnUse">
      <stop stop-color="#efd69a"/>
      <stop offset="0.5" stop-color="#e4c176"/>
      <stop offset="1" stop-color="#b38a48"/>
    </linearGradient>
    <linearGradient id="edge" x1="24" y1="18" x2="104" y2="110" gradientUnits="userSpaceOnUse">
      <stop stop-color="#f6e3ad"/>
      <stop offset="0.28" stop-color="#8c6428"/>
      <stop offset="0.58" stop-color="#d5ae65"/>
      <stop offset="1" stop-color="#6d4b20"/>
    </linearGradient>
    <radialGradient id="glow" cx="50%" cy="42%" r="65%">
      <stop stop-color="#f9e7ad" stop-opacity="0.75"/>
      <stop offset="0.58" stop-color="#d9b66b" stop-opacity="0.18"/>
      <stop offset="1" stop-color="#6a4b24" stop-opacity="0.18"/>
    </radialGradient>
    <filter id="softShadow" x="-28%" y="-24%" width="156%" height="164%">
      <feDropShadow dx="0" dy="9" stdDeviation="8" flood-color="#5f411e" flood-opacity="0.35"/>
    </filter>
    <filter id="stoneShadow" x="-24%" y="-18%" width="148%" height="148%">
      <feDropShadow dx="0" dy="4" stdDeviation="3" flood-color="#2a2117" flood-opacity="0.35"/>
    </filter>
  </defs>

  <rect width="128" height="128" fill="url(#field)"/>

  <g opacity="0.13" stroke="#fff2c7" stroke-width="1">
    <path d="M13 0v128M31 0v128M49 0v128M67 0v128M85 0v128M103 0v128M121 0v128"/>
    <path d="M0 19h128M0 45h128M0 72h128M0 99h128"/>
  </g>

  <rect x="23" y="17" width="82" height="94" rx="22" fill="url(#panel)" filter="url(#softShadow)"/>
  <rect x="25.5" y="19.5" width="77" height="89" rx="20" fill="none" stroke="url(#edge)" stroke-width="3"/>
  <rect x="30" y="24" width="68" height="80" rx="16" fill="url(#glow)" stroke="#f1d899" stroke-width="1" opacity="0.96"/>

  <g opacity="0.44" fill="none" stroke="#fff1bf" stroke-linecap="round">
    <path d="M41 61a23 23 0 0 1 46 0" stroke-width="1.7"/>
    <path d="M64 38v5M75 41l-2 5M84 50l-4 3M87 61h-5M44 61h5M46 50l4 3M53 41l2 5"/>
  </g>

  <g filter="url(#stoneShadow)">
    <path
      d="M38 91c7-18 11-34 18-49 3-7 8-16 15-17 8-1 10 8 13 18 3 8 8 15 12 24 3 8-1 17-10 23-12 8-33 10-48 1Z"
      fill="#211b14"
      opacity="0.92"
    />
    <path
      d="M49 86c5-17 10-32 18-48 3-5 7-8 11-8 0 14-6 28-15 42-4 7-8 13-14 14Z"
      fill="#eee5cf"
      opacity="0.9"
    />
    <path
      d="M61 43c4-8 9-12 14-13 5 7 5 16 1 26-5-5-9-9-15-13Z"
      fill="#3d3325"
      opacity="0.82"
    />
    <path
      d="M71 58c5-7 10-8 16-2 2 5 3 10 4 15-6-1-12-5-20-13Z"
      fill="#1b160f"
      opacity="0.78"
    />
    <path
      d="M58 68c5-7 11-7 16 0-3 8-8 12-15 13-2-4-2-8-1-13Z"
      fill="#f7eed8"
      opacity="0.86"
    />
    <path
      d="M81 73c4-3 8-1 10 5-2 4-5 7-10 9-4-4-4-9 0-14Z"
      fill="#efe4cc"
      opacity="0.86"
    />
    <path
      d="M45 88c-2-16 2-29 12-40-15 13-21 26-24 42 4 3 8 3 12-2Z"
      fill="#14100c"
      opacity="0.65"
    />
    <path
      d="M56 55c-4 7-7 13-9 20 5-5 10-8 17-8-1-5-4-9-8-12Z"
      fill="#5b503e"
      opacity="0.72"
    />
  </g>

  <path d="M36 93c20 8 43 7 58-1" fill="none" stroke="#2a2118" stroke-width="3.2" stroke-linecap="round" opacity="0.34"/>
  <path d="M44 98c13 3 28 3 42-1" fill="none" stroke="#f1ddb0" stroke-width="1.6" stroke-linecap="round" opacity="0.58"/>
</svg>
