<svg xmlns="http://www.w3.org/2000/svg" viewBox="0 0 64 64">
  <rect width="64" height="64" rx="14" fill="#f6f0e3"/>
  <circle cx="32" cy="32" r="23" fill="#17130d"/>
  <path d="M32 9a11.5 11.5 0 0 1 0 23 11.5 11.5 0 0 0 0 23 23 23 0 1 0 0-46Z" fill="#f6f0e3"/>
  <circle cx="32" cy="20.5" r="4" fill="#17130d"/>
  <circle cx="32" cy="43.5" r="4" fill="#f6f0e3"/>
  <g stroke="#b0842c" stroke-width="2.2" stroke-linecap="round">
    <path d="M7 31h7"/>
    <path d="M7 35h7"/>
    <path d="M7 39h7"/>
    <path d="M50 25h7"/>
    <path d="M50 29h7"/>
    <path d="M50 33h7"/>
    <path d="M25 7v7"/>
    <path d="M29 7v7"/>
    <path d="M33 7v7"/>
    <path d="M31 50v7"/>
    <path d="M35 50v7"/>
    <path d="M39 50v7"/>
  </g>
</svg>
